<svg width="60" height="38" viewBox="0 0 60 38" fill="none" xmlns="http://www.w3.org/2000/svg">
<g clip-path="url(#clip0_367_1185)">
<path d="M2.8125 31.875H42.1875C42.4361 31.875 42.6746 31.7762 42.8504 31.6004C43.0262 31.4246 43.125 31.1861 43.125 30.9375C43.125 30.6889 43.0262 30.4504 42.8504 30.2746C42.6746 30.0988 42.4361 30 42.1875 30H2.8125C2.56386 30 2.3254 29.9012 2.14959 29.7254C1.97377 29.5496 1.875 29.3111 1.875 29.0625V8.4375C1.875 8.18886 1.97377 7.9504 2.14959 7.77459C2.3254 7.59877 2.56386 7.5 2.8125 7.5H42.1875C42.4361 7.5 42.6746 7.40123 42.8504 7.22541C43.0262 7.0496 43.125 6.81114 43.125 6.5625C43.125 6.31386 43.0262 6.0754 42.8504 5.89959C42.6746 5.72377 42.4361 5.625 42.1875 5.625H2.8125C2.06658 5.625 1.35121 5.92132 0.823762 6.44876C0.296316 6.97621 0 7.69158 0 8.4375L0 29.0625C0 29.8084 0.296316 30.5238 0.823762 31.0512C1.35121 31.5787 2.06658 31.875 2.8125 31.875Z" fill="#DDDCDC"/>
<path d="M57.1875 5.625H49.6875C49.4389 5.625 49.2004 5.72377 49.0246 5.89959C48.8488 6.0754 48.75 6.31386 48.75 6.5625C48.75 6.81114 48.8488 7.0496 49.0246 7.22541C49.2004 7.40123 49.4389 7.5 49.6875 7.5H57.1875C57.4361 7.5 57.6746 7.59877 57.8504 7.77459C58.0262 7.9504 58.125 8.18886 58.125 8.4375V29.0625C58.125 29.3111 58.0262 29.5496 57.8504 29.7254C57.6746 29.9012 57.4361 30 57.1875 30H49.6875C49.4389 30 49.2004 30.0988 49.0246 30.2746C48.8488 30.4504 48.75 30.6889 48.75 30.9375C48.75 31.1861 48.8488 31.4246 49.0246 31.6004C49.2004 31.7762 49.4389 31.875 49.6875 31.875H57.1875C57.9334 31.875 58.6488 31.5787 59.1762 31.0512C59.7037 30.5238 60 29.8084 60 29.0625V8.4375C60 7.69158 59.7037 6.97621 59.1762 6.44876C58.6488 5.92132 57.9334 5.625 57.1875 5.625Z" fill="#DDDCDC"/>
<path d="M40.3125 1.875H45V35.625H40.3125C40.0639 35.625 39.8254 35.7238 39.6496 35.8996C39.4738 36.0754 39.375 36.3139 39.375 36.5625C39.375 36.8111 39.4738 37.0496 39.6496 37.2254C39.8254 37.4012 40.0639 37.5 40.3125 37.5H51.5625C51.8111 37.5 52.0496 37.4012 52.2254 37.2254C52.4012 37.0496 52.5 36.8111 52.5 36.5625C52.5 36.3139 52.4012 36.0754 52.2254 35.8996C52.0496 35.7238 51.8111 35.625 51.5625 35.625H46.875V1.875H51.5625C51.8111 1.875 52.0496 1.77623 52.2254 1.60041C52.4012 1.4246 52.5 1.18614 52.5 0.9375C52.5 0.68886 52.4012 0.450403 52.2254 0.274587C52.0496 0.0987721 51.8111 0 51.5625 0L40.3125 0C40.0639 0 39.8254 0.0987721 39.6496 0.274587C39.4738 0.450403 39.375 0.68886 39.375 0.9375C39.375 1.18614 39.4738 1.4246 39.6496 1.60041C39.8254 1.77623 40.0639 1.875 40.3125 1.875Z" fill="#DDDCDC"/>
<path d="M2.8125 31.875H42.1875C42.4361 31.875 42.6746 31.7762 42.8504 31.6004C43.0262 31.4246 43.125 31.1861 43.125 30.9375C43.125 30.6889 43.0262 30.4504 42.8504 30.2746C42.6746 30.0988 42.4361 30 42.1875 30H2.8125C2.56386 30 2.3254 29.9012 2.14959 29.7254C1.97377 29.5496 1.875 29.3111 1.875 29.0625V8.4375C1.875 8.18886 1.97377 7.9504 2.14959 7.77459C2.3254 7.59877 2.56386 7.5 2.8125 7.5H42.1875C42.4361 7.5 42.6746 7.40123 42.8504 7.22541C43.0262 7.0496 43.125 6.81114 43.125 6.5625C43.125 6.31386 43.0262 6.0754 42.8504 5.89959C42.6746 5.72377 42.4361 5.625 42.1875 5.625H2.8125C2.06658 5.625 1.35121 5.92132 0.823762 6.44876C0.296316 6.97621 0 7.69158 0 8.4375L0 29.0625C0 29.8084 0.296316 30.5238 0.823762 31.0512C1.35121 31.5787 2.06658 31.875 2.8125 31.875Z" fill="#DDDCDC"/>
<path d="M57.1875 5.625H49.6875C49.4389 5.625 49.2004 5.72377 49.0246 5.89959C48.8488 6.0754 48.75 6.31386 48.75 6.5625C48.75 6.81114 48.8488 7.0496 49.0246 7.22541C49.2004 7.40123 49.4389 7.5 49.6875 7.5H57.1875C57.4361 7.5 57.6746 7.59877 57.8504 7.77459C58.0262 7.9504 58.125 8.18886 58.125 8.4375V29.0625C58.125 29.3111 58.0262 29.5496 57.8504 29.7254C57.6746 29.9012 57.4361 30 57.1875 30H49.6875C49.4389 30 49.2004 30.0988 49.0246 30.2746C48.8488 30.4504 48.75 30.6889 48.75 30.9375C48.75 31.1861 48.8488 31.4246 49.0246 31.6004C49.2004 31.7762 49.4389 31.875 49.6875 31.875H57.1875C57.9334 31.875 58.6488 31.5787 59.1762 31.0512C59.7037 30.5238 60 29.8084 60 29.0625V8.4375C60 7.69158 59.7037 6.97621 59.1762 6.44876C58.6488 5.92132 57.9334 5.625 57.1875 5.625Z" fill="#DDDCDC"/>
<path d="M40.3125 1.875H45V35.625H40.3125C40.0639 35.625 39.8254 35.7238 39.6496 35.8996C39.4738 36.0754 39.375 36.3139 39.375 36.5625C39.375 36.8111 39.4738 37.0496 39.6496 37.2254C39.8254 37.4012 40.0639 37.5 40.3125 37.5H51.5625C51.8111 37.5 52.0496 37.4012 52.2254 37.2254C52.4012 37.0496 52.5 36.8111 52.5 36.5625C52.5 36.3139 52.4012 36.0754 52.2254 35.8996C52.0496 35.7238 51.8111 35.625 51.5625 35.625H46.875V1.875H51.5625C51.8111 1.875 52.0496 1.77623 52.2254 1.60041C52.4012 1.4246 52.5 1.18614 52.5 0.9375C52.5 0.68886 52.4012 0.450403 52.2254 0.274587C52.0496 0.0987721 51.8111 0 51.5625 0L40.3125 0C40.0639 0 39.8254 0.0987721 39.6496 0.274587C39.4738 0.450403 39.375 0.68886 39.375 0.9375C39.375 1.18614 39.4738 1.4246 39.6496 1.60041C39.8254 1.77623 40.0639 1.875 40.3125 1.875Z" fill="#DDDCDC"/>
<path d="M16.914 16.2909C17.4318 16.2909 17.8515 15.8712 17.8515 15.3534C17.8515 14.8356 17.4318 14.4159 16.914 14.4159C16.3962 14.4159 15.9765 14.8356 15.9765 15.3534C15.9765 15.8712 16.3962 16.2909 16.914 16.2909Z" fill="#DDDCDC"/>
<path d="M21.0882 16.1114C20.7753 15.3147 20.2015 14.1652 19.245 13.2132C18.2918 12.2644 17.1545 11.7071 16.3682 11.4066C15.505 11.0766 14.5241 11.2846 13.8693 11.9363L11.5684 14.2264C10.8864 14.9053 10.6898 15.9498 11.0792 16.8256C11.2 17.0973 11.3313 17.363 11.4716 17.6197L6.42162 22.6697C6.31173 22.7796 6.25 22.9286 6.25 23.084V25.6621C6.25 25.9857 6.51232 26.2481 6.83594 26.2481H9.41405C9.73766 26.2481 9.99999 25.9857 9.99999 25.6621V24.6074L11.0547 24.6074C11.3783 24.6074 11.6406 24.3451 11.6406 24.0215V22.9668H12.6953C13.0189 22.9668 13.2812 22.7045 13.2812 22.3809C13.2812 22.0573 13.0189 21.795 12.6953 21.795H11.0547C10.7311 21.795 10.4687 22.0573 10.4687 22.3809V23.4355L9.41405 23.4356C9.09044 23.4356 8.82811 23.6979 8.82811 24.0215V25.0762H7.42187V23.3267L12.6178 18.1308C12.8087 17.9399 12.8445 17.6433 12.7045 17.4125C12.5014 17.0778 12.3149 16.7202 12.1501 16.3495C11.9567 15.9147 12.0552 15.3953 12.3952 15.057L14.6961 12.7669C15.0246 12.4399 15.5167 12.3357 15.9499 12.5012C16.6302 12.7612 17.6107 13.2399 18.4183 14.0437C19.2309 14.8524 19.7255 15.8474 19.9974 16.5397C20.1671 16.9718 20.064 17.4627 19.7348 17.7903L17.4061 20.1081C17.067 20.4456 16.5608 20.5442 16.1166 20.3595C15.7501 20.2071 15.3953 20.026 15.0619 19.8214C14.7861 19.6521 14.4253 19.7385 14.256 20.0143C14.0867 20.2901 14.1731 20.6509 14.4489 20.8202C14.8342 21.0566 15.2439 21.2657 15.6665 21.4415C16.5496 21.8088 17.5569 21.6114 18.2328 20.9387L20.5614 18.6209C21.2219 17.9635 21.4287 16.9785 21.0882 16.1114Z" fill="#DDDCDC"/>
</g>
<defs>
<clipPath id="clip0_367_1185">
<rect width="60" height="37.5" rx="5" fill="white"/>
</clipPath>
</defs>
</svg>
