<svg width="60" height="38" viewBox="0 0 60 38" fill="none" xmlns="http://www.w3.org/2000/svg">
<g clip-path="url(#clip0_393_1191)">
<path d="M2.8125 31.875H42.1875C42.4361 31.875 42.6746 31.7762 42.8504 31.6004C43.0262 31.4246 43.125 31.1861 43.125 30.9375C43.125 30.6889 43.0262 30.4504 42.8504 30.2746C42.6746 30.0988 42.4361 30 42.1875 30H2.8125C2.56386 30 2.3254 29.9012 2.14959 29.7254C1.97377 29.5496 1.875 29.3111 1.875 29.0625V8.4375C1.875 8.18886 1.97377 7.9504 2.14959 7.77459C2.3254 7.59877 2.56386 7.5 2.8125 7.5H42.1875C42.4361 7.5 42.6746 7.40123 42.8504 7.22541C43.0262 7.0496 43.125 6.81114 43.125 6.5625C43.125 6.31386 43.0262 6.0754 42.8504 5.89959C42.6746 5.72377 42.4361 5.625 42.1875 5.625H2.8125C2.06658 5.625 1.35121 5.92132 0.823762 6.44876C0.296316 6.97621 0 7.69158 0 8.4375L0 29.0625C0 29.8084 0.296316 30.5238 0.823762 31.0512C1.35121 31.5787 2.06658 31.875 2.8125 31.875Z" fill="#DDDCDC"/>
<path d="M57.1875 5.625H49.6875C49.4389 5.625 49.2004 5.72377 49.0246 5.89959C48.8488 6.0754 48.75 6.31386 48.75 6.5625C48.75 6.81114 48.8488 7.0496 49.0246 7.22541C49.2004 7.40123 49.4389 7.5 49.6875 7.5H57.1875C57.4361 7.5 57.6746 7.59877 57.8504 7.77459C58.0262 7.9504 58.125 8.18886 58.125 8.4375V29.0625C58.125 29.3111 58.0262 29.5496 57.8504 29.7254C57.6746 29.9012 57.4361 30 57.1875 30H49.6875C49.4389 30 49.2004 30.0988 49.0246 30.2746C48.8488 30.4504 48.75 30.6889 48.75 30.9375C48.75 31.1861 48.8488 31.4246 49.0246 31.6004C49.2004 31.7762 49.4389 31.875 49.6875 31.875H57.1875C57.9334 31.875 58.6488 31.5787 59.1762 31.0512C59.7037 30.5238 60 29.8084 60 29.0625V8.4375C60 7.69158 59.7037 6.97621 59.1762 6.44876C58.6488 5.92132 57.9334 5.625 57.1875 5.625Z" fill="#DDDCDC"/>
<path d="M40.3125 1.875H45V35.625H40.3125C40.0639 35.625 39.8254 35.7238 39.6496 35.8996C39.4738 36.0754 39.375 36.3139 39.375 36.5625C39.375 36.8111 39.4738 37.0496 39.6496 37.2254C39.8254 37.4012 40.0639 37.5 40.3125 37.5H51.5625C51.8111 37.5 52.0496 37.4012 52.2254 37.2254C52.4012 37.0496 52.5 36.8111 52.5 36.5625C52.5 36.3139 52.4012 36.0754 52.2254 35.8996C52.0496 35.7238 51.8111 35.625 51.5625 35.625H46.875V1.875H51.5625C51.8111 1.875 52.0496 1.77623 52.2254 1.60041C52.4012 1.4246 52.5 1.18614 52.5 0.9375C52.5 0.68886 52.4012 0.450403 52.2254 0.274587C52.0496 0.0987721 51.8111 0 51.5625 0L40.3125 0C40.0639 0 39.8254 0.0987721 39.6496 0.274587C39.4738 0.450403 39.375 0.68886 39.375 0.9375C39.375 1.18614 39.4738 1.4246 39.6496 1.60041C39.8254 1.77623 40.0639 1.875 40.3125 1.875Z" fill="#DDDCDC"/>
<path d="M2.8125 31.875H42.1875C42.4361 31.875 42.6746 31.7762 42.8504 31.6004C43.0262 31.4246 43.125 31.1861 43.125 30.9375C43.125 30.6889 43.0262 30.4504 42.8504 30.2746C42.6746 30.0988 42.4361 30 42.1875 30H2.8125C2.56386 30 2.3254 29.9012 2.14959 29.7254C1.97377 29.5496 1.875 29.3111 1.875 29.0625V8.4375C1.875 8.18886 1.97377 7.9504 2.14959 7.77459C2.3254 7.59877 2.56386 7.5 2.8125 7.5H42.1875C42.4361 7.5 42.6746 7.40123 42.8504 7.22541C43.0262 7.0496 43.125 6.81114 43.125 6.5625C43.125 6.31386 43.0262 6.0754 42.8504 5.89959C42.6746 5.72377 42.4361 5.625 42.1875 5.625H2.8125C2.06658 5.625 1.35121 5.92132 0.823762 6.44876C0.296316 6.97621 0 7.69158 0 8.4375L0 29.0625C0 29.8084 0.296316 30.5238 0.823762 31.0512C1.35121 31.5787 2.06658 31.875 2.8125 31.875Z" fill="#DDDCDC"/>
<path d="M57.1875 5.625H49.6875C49.4389 5.625 49.2004 5.72377 49.0246 5.89959C48.8488 6.0754 48.75 6.31386 48.75 6.5625C48.75 6.81114 48.8488 7.0496 49.0246 7.22541C49.2004 7.40123 49.4389 7.5 49.6875 7.5H57.1875C57.4361 7.5 57.6746 7.59877 57.8504 7.77459C58.0262 7.9504 58.125 8.18886 58.125 8.4375V29.0625C58.125 29.3111 58.0262 29.5496 57.8504 29.7254C57.6746 29.9012 57.4361 30 57.1875 30H49.6875C49.4389 30 49.2004 30.0988 49.0246 30.2746C48.8488 30.4504 48.75 30.6889 48.75 30.9375C48.75 31.1861 48.8488 31.4246 49.0246 31.6004C49.2004 31.7762 49.4389 31.875 49.6875 31.875H57.1875C57.9334 31.875 58.6488 31.5787 59.1762 31.0512C59.7037 30.5238 60 29.8084 60 29.0625V8.4375C60 7.69158 59.7037 6.97621 59.1762 6.44876C58.6488 5.92132 57.9334 5.625 57.1875 5.625Z" fill="#DDDCDC"/>
<path d="M40.3125 1.875H45V35.625H40.3125C40.0639 35.625 39.8254 35.7238 39.6496 35.8996C39.4738 36.0754 39.375 36.3139 39.375 36.5625C39.375 36.8111 39.4738 37.0496 39.6496 37.2254C39.8254 37.4012 40.0639 37.5 40.3125 37.5H51.5625C51.8111 37.5 52.0496 37.4012 52.2254 37.2254C52.4012 37.0496 52.5 36.8111 52.5 36.5625C52.5 36.3139 52.4012 36.0754 52.2254 35.8996C52.0496 35.7238 51.8111 35.625 51.5625 35.625H46.875V1.875H51.5625C51.8111 1.875 52.0496 1.77623 52.2254 1.60041C52.4012 1.4246 52.5 1.18614 52.5 0.9375C52.5 0.68886 52.4012 0.450403 52.2254 0.274587C52.0496 0.0987721 51.8111 0 51.5625 0L40.3125 0C40.0639 0 39.8254 0.0987721 39.6496 0.274587C39.4738 0.450403 39.375 0.68886 39.375 0.9375C39.375 1.18614 39.4738 1.4246 39.6496 1.60041C39.8254 1.77623 40.0639 1.875 40.3125 1.875Z" fill="#DDDCDC"/>
<g clip-path="url(#clip1_393_1191)">
<path d="M20.5773 12.8754C20.5412 12.8417 20.4658 12.7846 20.414 12.7464C19.4737 12.0374 18.0282 11.19 16.6331 11.2535C14.2972 11.3612 11.1924 14.5137 10.2964 15.4776C9.40073 16.4417 6.48325 19.7683 6.54674 22.1037C6.55634 22.493 6.63817 22.9056 6.79017 23.3296C7.14106 24.3083 7.80848 25.1918 8.29972 25.7529C8.29972 25.7529 8.40252 25.8738 8.45202 25.9204C8.57869 26.0377 8.7636 26.1306 9.01723 26.2043C9.14681 26.2418 9.28338 26.25 9.37481 26.25C9.47673 26.25 9.67416 26.2398 9.85383 26.1728C10.0996 26.0811 10.2755 25.976 10.3937 25.8502C10.4802 25.757 12.1298 23.6514 12.1391 23.638L12.1496 23.622C12.2373 23.5078 12.3057 23.3887 12.3531 23.2676C12.4775 22.9502 12.4824 22.5987 12.3677 22.2775C12.2946 22.0734 12.1738 21.8896 12.0206 21.7478L11.246 21.0242C11.1732 20.9564 11.0978 20.8303 11.087 20.7857C11.0783 20.7388 11.076 20.7062 11.0754 20.6853L15.5886 15.8287C15.5997 15.8171 15.6104 15.8113 15.618 15.8081C15.625 15.8104 15.6311 15.8133 15.6358 15.8148C15.6719 15.8325 15.7866 15.9164 15.9002 16.0212L16.6753 16.7373C17.0827 17.1161 17.7164 17.2102 18.2105 16.969C18.3867 16.8831 18.5183 16.7655 18.5803 16.711L18.6153 16.6828C18.6313 16.6688 20.5768 14.896 20.6499 14.8165C20.833 14.6194 20.932 14.309 20.953 13.8678C20.9646 13.6226 20.8924 13.3151 20.7815 13.1366C20.7095 13.0219 20.6426 12.936 20.5773 12.8754ZM20.0174 14.2129C19.9166 14.3122 18.1494 15.9257 18.0568 16.0101L17.9848 16.0695C17.9578 16.0937 17.894 16.1505 17.8264 16.1837C17.6494 16.2699 17.4188 16.2361 17.2682 16.0963L16.4922 15.3794C16.4016 15.2956 16.1698 15.0917 15.9768 15.0108C15.8481 14.9572 15.736 14.9319 15.6058 14.9316C15.3571 14.9403 15.1253 15.0457 14.9503 15.2315L10.3917 20.1369C10.2184 20.3236 10.1631 20.595 10.2274 20.9439C10.2772 21.2135 10.4811 21.5056 10.6494 21.6628L11.4254 22.3876C11.4775 22.4359 11.5189 22.5 11.5451 22.5722C11.5882 22.6928 11.5861 22.8302 11.5396 22.949C11.5125 23.0183 11.4673 23.076 11.4525 23.0949C11.4385 23.113 11.4283 23.1275 11.4202 23.1406C11.2638 23.3424 9.84072 25.1531 9.75803 25.2512C9.75744 25.2515 9.7094 25.2943 9.54837 25.3546C9.52565 25.363 9.45868 25.3764 9.37511 25.3764C9.31483 25.3764 9.27552 25.3697 9.26125 25.3653C9.10517 25.3199 9.05042 25.2824 9.04926 25.2824C9.02101 25.2541 8.97238 25.1953 8.96394 25.1854C8.51579 24.6732 7.91739 23.8846 7.6128 23.0346C7.49224 22.6986 7.4276 22.3783 7.42032 22.0813C7.37693 20.4858 9.28775 17.847 10.9368 16.0725C12.5855 14.2976 15.0779 12.1996 16.6733 12.1262C17.8235 12.0726 19.0614 12.8207 19.8785 13.4366L19.9099 13.4602C19.9286 13.4738 19.9635 13.4986 19.9787 13.5114C19.9993 13.5332 20.0194 13.5659 20.0357 13.5918C20.0555 13.6305 20.0835 13.7508 20.0797 13.8259C20.0672 14.0839 20.0209 14.2033 20.0174 14.2129Z" fill="#DDDCDC"/>
</g>
</g>
<defs>
<clipPath id="clip0_393_1191">
<rect width="60" height="37.5" rx="5" fill="white"/>
</clipPath>
<clipPath id="clip1_393_1191">
<rect width="15" height="15" fill="white" transform="translate(6.25 11.25)"/>
</clipPath>
</defs>
</svg>
