<svg width="60" height="38" viewBox="0 0 60 38" fill="none" xmlns="http://www.w3.org/2000/svg">
<g clip-path="url(#clip0_393_1202)">
<path d="M2.8125 31.875H42.1875C42.4361 31.875 42.6746 31.7762 42.8504 31.6004C43.0262 31.4246 43.125 31.1861 43.125 30.9375C43.125 30.6889 43.0262 30.4504 42.8504 30.2746C42.6746 30.0988 42.4361 30 42.1875 30H2.8125C2.56386 30 2.3254 29.9012 2.14959 29.7254C1.97377 29.5496 1.875 29.3111 1.875 29.0625V8.4375C1.875 8.18886 1.97377 7.9504 2.14959 7.77459C2.3254 7.59877 2.56386 7.5 2.8125 7.5H42.1875C42.4361 7.5 42.6746 7.40123 42.8504 7.22541C43.0262 7.0496 43.125 6.81114 43.125 6.5625C43.125 6.31386 43.0262 6.0754 42.8504 5.89959C42.6746 5.72377 42.4361 5.625 42.1875 5.625H2.8125C2.06658 5.625 1.35121 5.92132 0.823762 6.44876C0.296316 6.97621 0 7.69158 0 8.4375L0 29.0625C0 29.8084 0.296316 30.5238 0.823762 31.0512C1.35121 31.5787 2.06658 31.875 2.8125 31.875Z" fill="#DDDCDC"/>
<path d="M57.1875 5.625H49.6875C49.4389 5.625 49.2004 5.72377 49.0246 5.89959C48.8488 6.0754 48.75 6.31386 48.75 6.5625C48.75 6.81114 48.8488 7.0496 49.0246 7.22541C49.2004 7.40123 49.4389 7.5 49.6875 7.5H57.1875C57.4361 7.5 57.6746 7.59877 57.8504 7.77459C58.0262 7.9504 58.125 8.18886 58.125 8.4375V29.0625C58.125 29.3111 58.0262 29.5496 57.8504 29.7254C57.6746 29.9012 57.4361 30 57.1875 30H49.6875C49.4389 30 49.2004 30.0988 49.0246 30.2746C48.8488 30.4504 48.75 30.6889 48.75 30.9375C48.75 31.1861 48.8488 31.4246 49.0246 31.6004C49.2004 31.7762 49.4389 31.875 49.6875 31.875H57.1875C57.9334 31.875 58.6488 31.5787 59.1762 31.0512C59.7037 30.5238 60 29.8084 60 29.0625V8.4375C60 7.69158 59.7037 6.97621 59.1762 6.44876C58.6488 5.92132 57.9334 5.625 57.1875 5.625Z" fill="#DDDCDC"/>
<path d="M40.3125 1.875H45V35.625H40.3125C40.0639 35.625 39.8254 35.7238 39.6496 35.8996C39.4738 36.0754 39.375 36.3139 39.375 36.5625C39.375 36.8111 39.4738 37.0496 39.6496 37.2254C39.8254 37.4012 40.0639 37.5 40.3125 37.5H51.5625C51.8111 37.5 52.0496 37.4012 52.2254 37.2254C52.4012 37.0496 52.5 36.8111 52.5 36.5625C52.5 36.3139 52.4012 36.0754 52.2254 35.8996C52.0496 35.7238 51.8111 35.625 51.5625 35.625H46.875V1.875H51.5625C51.8111 1.875 52.0496 1.77623 52.2254 1.60041C52.4012 1.4246 52.5 1.18614 52.5 0.9375C52.5 0.68886 52.4012 0.450403 52.2254 0.274587C52.0496 0.0987721 51.8111 0 51.5625 0L40.3125 0C40.0639 0 39.8254 0.0987721 39.6496 0.274587C39.4738 0.450403 39.375 0.68886 39.375 0.9375C39.375 1.18614 39.4738 1.4246 39.6496 1.60041C39.8254 1.77623 40.0639 1.875 40.3125 1.875Z" fill="#DDDCDC"/>
<path d="M2.8125 31.875H42.1875C42.4361 31.875 42.6746 31.7762 42.8504 31.6004C43.0262 31.4246 43.125 31.1861 43.125 30.9375C43.125 30.6889 43.0262 30.4504 42.8504 30.2746C42.6746 30.0988 42.4361 30 42.1875 30H2.8125C2.56386 30 2.3254 29.9012 2.14959 29.7254C1.97377 29.5496 1.875 29.3111 1.875 29.0625V8.4375C1.875 8.18886 1.97377 7.9504 2.14959 7.77459C2.3254 7.59877 2.56386 7.5 2.8125 7.5H42.1875C42.4361 7.5 42.6746 7.40123 42.8504 7.22541C43.0262 7.0496 43.125 6.81114 43.125 6.5625C43.125 6.31386 43.0262 6.0754 42.8504 5.89959C42.6746 5.72377 42.4361 5.625 42.1875 5.625H2.8125C2.06658 5.625 1.35121 5.92132 0.823762 6.44876C0.296316 6.97621 0 7.69158 0 8.4375L0 29.0625C0 29.8084 0.296316 30.5238 0.823762 31.0512C1.35121 31.5787 2.06658 31.875 2.8125 31.875Z" fill="#DDDCDC"/>
<path d="M57.1875 5.625H49.6875C49.4389 5.625 49.2004 5.72377 49.0246 5.89959C48.8488 6.0754 48.75 6.31386 48.75 6.5625C48.75 6.81114 48.8488 7.0496 49.0246 7.22541C49.2004 7.40123 49.4389 7.5 49.6875 7.5H57.1875C57.4361 7.5 57.6746 7.59877 57.8504 7.77459C58.0262 7.9504 58.125 8.18886 58.125 8.4375V29.0625C58.125 29.3111 58.0262 29.5496 57.8504 29.7254C57.6746 29.9012 57.4361 30 57.1875 30H49.6875C49.4389 30 49.2004 30.0988 49.0246 30.2746C48.8488 30.4504 48.75 30.6889 48.75 30.9375C48.75 31.1861 48.8488 31.4246 49.0246 31.6004C49.2004 31.7762 49.4389 31.875 49.6875 31.875H57.1875C57.9334 31.875 58.6488 31.5787 59.1762 31.0512C59.7037 30.5238 60 29.8084 60 29.0625V8.4375C60 7.69158 59.7037 6.97621 59.1762 6.44876C58.6488 5.92132 57.9334 5.625 57.1875 5.625Z" fill="#DDDCDC"/>
<path d="M40.3125 1.875H45V35.625H40.3125C40.0639 35.625 39.8254 35.7238 39.6496 35.8996C39.4738 36.0754 39.375 36.3139 39.375 36.5625C39.375 36.8111 39.4738 37.0496 39.6496 37.2254C39.8254 37.4012 40.0639 37.5 40.3125 37.5H51.5625C51.8111 37.5 52.0496 37.4012 52.2254 37.2254C52.4012 37.0496 52.5 36.8111 52.5 36.5625C52.5 36.3139 52.4012 36.0754 52.2254 35.8996C52.0496 35.7238 51.8111 35.625 51.5625 35.625H46.875V1.875H51.5625C51.8111 1.875 52.0496 1.77623 52.2254 1.60041C52.4012 1.4246 52.5 1.18614 52.5 0.9375C52.5 0.68886 52.4012 0.450403 52.2254 0.274587C52.0496 0.0987721 51.8111 0 51.5625 0L40.3125 0C40.0639 0 39.8254 0.0987721 39.6496 0.274587C39.4738 0.450403 39.375 0.68886 39.375 0.9375C39.375 1.18614 39.4738 1.4246 39.6496 1.60041C39.8254 1.77623 40.0639 1.875 40.3125 1.875Z" fill="#DDDCDC"/>
<g clip-path="url(#clip1_393_1202)">
<path d="M16.3867 12.1582C15.6694 12.1582 15.0314 12.5038 14.6301 13.0371H6.25V15.6738H14.6301C15.0314 16.2071 15.6694 16.5527 16.3867 16.5527C17.104 16.5527 17.742 16.2071 18.1434 15.6738H21.25V13.0371H18.1434C17.742 12.5038 17.104 12.1582 16.3867 12.1582ZM7.12891 14.7949V13.9157H14.2336C14.2047 14.0578 14.1895 14.205 14.1895 14.3555C14.1895 14.506 14.2047 14.6529 14.2336 14.7949H7.12891ZM16.3867 15.6738C15.6598 15.6738 15.0684 15.0824 15.0684 14.3555C15.0684 13.6277 15.6598 13.0371 16.3867 13.0371C17.1136 13.0371 17.7051 13.6285 17.7051 14.3555C17.7051 15.0824 17.1136 15.6738 16.3867 15.6738ZM20.3711 13.916V14.7949H18.5398C18.5688 14.6529 18.584 14.506 18.584 14.3555C18.584 14.205 18.5688 14.058 18.5398 13.916H20.3711Z" fill="#DDDCDC"/>
<path d="M11.1133 16.5527C10.396 16.5527 9.75796 16.8983 9.35661 17.4316H6.25V20.0684H9.35661C9.75796 20.6017 10.396 20.9473 11.1133 20.9473C11.8306 20.9473 12.4686 20.6017 12.8699 20.0684H21.25V17.4316H12.8699C12.4686 16.8983 11.8306 16.5527 11.1133 16.5527ZM7.12891 19.1895V18.3102H8.96019C8.93124 18.4523 8.91602 18.5993 8.91602 18.7497C8.91602 18.9001 8.93124 19.0474 8.96019 19.1895H7.12891ZM11.1133 20.0684C10.3864 20.0684 9.79492 19.4769 9.79492 18.75C9.79492 18.0231 10.3864 17.4316 11.1133 17.4316C11.8402 17.4316 12.4316 18.0231 12.4316 18.75C12.4316 19.4769 11.8402 20.0684 11.1133 20.0684ZM20.3711 18.3105V19.1895H13.2664C13.2953 19.0474 13.3105 18.9005 13.3105 18.75C13.3105 18.5995 13.2953 18.4526 13.2664 18.3105H20.3711Z" fill="#DDDCDC"/>
<path d="M16.3867 20.9473C15.6694 20.9473 15.0314 21.2929 14.6301 21.8262H6.25V24.4629H14.6301C15.0314 24.9962 15.6694 25.3418 16.3867 25.3418C17.104 25.3418 17.742 24.9962 18.1434 24.4629H21.25V21.8262H18.1434C17.742 21.2929 17.104 20.9473 16.3867 20.9473ZM7.12891 23.584V22.7047H14.2336C14.2047 22.8469 14.1895 22.994 14.1895 23.1445C14.1895 23.295 14.2047 23.442 14.2336 23.584H7.12891ZM16.3867 24.4629C15.6598 24.4629 15.0684 23.8715 15.0684 23.1445C15.0684 22.4176 15.6598 21.8262 16.3867 21.8262C17.1136 21.8262 17.7051 22.4176 17.7051 23.1445C17.7051 23.8715 17.1136 24.4629 16.3867 24.4629ZM20.3711 22.7051V23.584H18.5398C18.5688 23.442 18.584 23.295 18.584 23.1445C18.584 22.994 18.5688 22.8471 18.5398 22.7051H20.3711Z" fill="#DDDCDC"/>
</g>
</g>
<defs>
<clipPath id="clip0_393_1202">
<rect width="60" height="37.5" rx="5" fill="white"/>
</clipPath>
<clipPath id="clip1_393_1202">
<rect width="15" height="15" fill="white" transform="translate(6.25 11.25)"/>
</clipPath>
</defs>
</svg>
