<svg width="60" height="38" viewBox="0 0 60 38" fill="none" xmlns="http://www.w3.org/2000/svg">
<g clip-path="url(#clip0_393_1169)">
<path d="M2.8125 31.875H42.1875C42.4361 31.875 42.6746 31.7762 42.8504 31.6004C43.0262 31.4246 43.125 31.1861 43.125 30.9375C43.125 30.6889 43.0262 30.4504 42.8504 30.2746C42.6746 30.0988 42.4361 30 42.1875 30H2.8125C2.56386 30 2.3254 29.9012 2.14959 29.7254C1.97377 29.5496 1.875 29.3111 1.875 29.0625V8.4375C1.875 8.18886 1.97377 7.9504 2.14959 7.77459C2.3254 7.59877 2.56386 7.5 2.8125 7.5H42.1875C42.4361 7.5 42.6746 7.40123 42.8504 7.22541C43.0262 7.0496 43.125 6.81114 43.125 6.5625C43.125 6.31386 43.0262 6.0754 42.8504 5.89959C42.6746 5.72377 42.4361 5.625 42.1875 5.625H2.8125C2.06658 5.625 1.35121 5.92132 0.823762 6.44876C0.296316 6.97621 0 7.69158 0 8.4375L0 29.0625C0 29.8084 0.296316 30.5238 0.823762 31.0512C1.35121 31.5787 2.06658 31.875 2.8125 31.875Z" fill="#DDDCDC"/>
<path d="M57.1875 5.625H49.6875C49.4389 5.625 49.2004 5.72377 49.0246 5.89959C48.8488 6.0754 48.75 6.31386 48.75 6.5625C48.75 6.81114 48.8488 7.0496 49.0246 7.22541C49.2004 7.40123 49.4389 7.5 49.6875 7.5H57.1875C57.4361 7.5 57.6746 7.59877 57.8504 7.77459C58.0262 7.9504 58.125 8.18886 58.125 8.4375V29.0625C58.125 29.3111 58.0262 29.5496 57.8504 29.7254C57.6746 29.9012 57.4361 30 57.1875 30H49.6875C49.4389 30 49.2004 30.0988 49.0246 30.2746C48.8488 30.4504 48.75 30.6889 48.75 30.9375C48.75 31.1861 48.8488 31.4246 49.0246 31.6004C49.2004 31.7762 49.4389 31.875 49.6875 31.875H57.1875C57.9334 31.875 58.6488 31.5787 59.1762 31.0512C59.7037 30.5238 60 29.8084 60 29.0625V8.4375C60 7.69158 59.7037 6.97621 59.1762 6.44876C58.6488 5.92132 57.9334 5.625 57.1875 5.625Z" fill="#DDDCDC"/>
<path d="M40.3125 1.875H45V35.625H40.3125C40.0639 35.625 39.8254 35.7238 39.6496 35.8996C39.4738 36.0754 39.375 36.3139 39.375 36.5625C39.375 36.8111 39.4738 37.0496 39.6496 37.2254C39.8254 37.4012 40.0639 37.5 40.3125 37.5H51.5625C51.8111 37.5 52.0496 37.4012 52.2254 37.2254C52.4012 37.0496 52.5 36.8111 52.5 36.5625C52.5 36.3139 52.4012 36.0754 52.2254 35.8996C52.0496 35.7238 51.8111 35.625 51.5625 35.625H46.875V1.875H51.5625C51.8111 1.875 52.0496 1.77623 52.2254 1.60041C52.4012 1.4246 52.5 1.18614 52.5 0.9375C52.5 0.68886 52.4012 0.450403 52.2254 0.274587C52.0496 0.0987721 51.8111 0 51.5625 0L40.3125 0C40.0639 0 39.8254 0.0987721 39.6496 0.274587C39.4738 0.450403 39.375 0.68886 39.375 0.9375C39.375 1.18614 39.4738 1.4246 39.6496 1.60041C39.8254 1.77623 40.0639 1.875 40.3125 1.875Z" fill="#DDDCDC"/>
<path d="M2.8125 31.875H42.1875C42.4361 31.875 42.6746 31.7762 42.8504 31.6004C43.0262 31.4246 43.125 31.1861 43.125 30.9375C43.125 30.6889 43.0262 30.4504 42.8504 30.2746C42.6746 30.0988 42.4361 30 42.1875 30H2.8125C2.56386 30 2.3254 29.9012 2.14959 29.7254C1.97377 29.5496 1.875 29.3111 1.875 29.0625V8.4375C1.875 8.18886 1.97377 7.9504 2.14959 7.77459C2.3254 7.59877 2.56386 7.5 2.8125 7.5H42.1875C42.4361 7.5 42.6746 7.40123 42.8504 7.22541C43.0262 7.0496 43.125 6.81114 43.125 6.5625C43.125 6.31386 43.0262 6.0754 42.8504 5.89959C42.6746 5.72377 42.4361 5.625 42.1875 5.625H2.8125C2.06658 5.625 1.35121 5.92132 0.823762 6.44876C0.296316 6.97621 0 7.69158 0 8.4375L0 29.0625C0 29.8084 0.296316 30.5238 0.823762 31.0512C1.35121 31.5787 2.06658 31.875 2.8125 31.875Z" fill="#DDDCDC"/>
<path d="M57.1875 5.625H49.6875C49.4389 5.625 49.2004 5.72377 49.0246 5.89959C48.8488 6.0754 48.75 6.31386 48.75 6.5625C48.75 6.81114 48.8488 7.0496 49.0246 7.22541C49.2004 7.40123 49.4389 7.5 49.6875 7.5H57.1875C57.4361 7.5 57.6746 7.59877 57.8504 7.77459C58.0262 7.9504 58.125 8.18886 58.125 8.4375V29.0625C58.125 29.3111 58.0262 29.5496 57.8504 29.7254C57.6746 29.9012 57.4361 30 57.1875 30H49.6875C49.4389 30 49.2004 30.0988 49.0246 30.2746C48.8488 30.4504 48.75 30.6889 48.75 30.9375C48.75 31.1861 48.8488 31.4246 49.0246 31.6004C49.2004 31.7762 49.4389 31.875 49.6875 31.875H57.1875C57.9334 31.875 58.6488 31.5787 59.1762 31.0512C59.7037 30.5238 60 29.8084 60 29.0625V8.4375C60 7.69158 59.7037 6.97621 59.1762 6.44876C58.6488 5.92132 57.9334 5.625 57.1875 5.625Z" fill="#DDDCDC"/>
<path d="M40.3125 1.875H45V35.625H40.3125C40.0639 35.625 39.8254 35.7238 39.6496 35.8996C39.4738 36.0754 39.375 36.3139 39.375 36.5625C39.375 36.8111 39.4738 37.0496 39.6496 37.2254C39.8254 37.4012 40.0639 37.5 40.3125 37.5H51.5625C51.8111 37.5 52.0496 37.4012 52.2254 37.2254C52.4012 37.0496 52.5 36.8111 52.5 36.5625C52.5 36.3139 52.4012 36.0754 52.2254 35.8996C52.0496 35.7238 51.8111 35.625 51.5625 35.625H46.875V1.875H51.5625C51.8111 1.875 52.0496 1.77623 52.2254 1.60041C52.4012 1.4246 52.5 1.18614 52.5 0.9375C52.5 0.68886 52.4012 0.450403 52.2254 0.274587C52.0496 0.0987721 51.8111 0 51.5625 0L40.3125 0C40.0639 0 39.8254 0.0987721 39.6496 0.274587C39.4738 0.450403 39.375 0.68886 39.375 0.9375C39.375 1.18614 39.4738 1.4246 39.6496 1.60041C39.8254 1.77623 40.0639 1.875 40.3125 1.875Z" fill="#DDDCDC"/>
<g clip-path="url(#clip1_393_1169)">
<path d="M19.598 12.902C18.5326 11.8367 17.1162 11.25 15.6096 11.25C15.6095 11.25 15.6096 11.25 15.6095 11.25C14.103 11.25 12.6864 11.8368 11.6211 12.902C10.5558 13.9674 9.9691 15.3838 9.9691 16.8905C9.9691 17.9186 10.2425 18.9046 10.7546 19.7658L6.64943 23.871C6.3919 24.1286 6.25 24.471 6.25 24.8353C6.25 25.1996 6.39186 25.5421 6.64943 25.7996L6.70035 25.8505C6.95792 26.1081 7.30039 26.25 7.66471 26.25C8.02904 26.25 8.37147 26.1081 8.62904 25.8506L12.7342 21.7454C13.5954 22.2575 14.5814 22.5309 15.6095 22.5309C17.1162 22.5309 18.5326 21.9442 19.598 20.8789C20.6633 19.8136 21.25 18.3971 21.25 16.8905C21.25 15.3838 20.6634 13.9674 19.598 12.902ZM7.94029 25.1618C7.86665 25.2355 7.76878 25.276 7.66468 25.276C7.56061 25.276 7.46274 25.2354 7.3891 25.1618L7.33814 25.1108C7.26455 25.0372 7.22399 24.9394 7.22399 24.8353C7.22399 24.7312 7.26455 24.6333 7.33814 24.5597L11.3312 20.5667C11.4235 20.6737 11.5201 20.7779 11.6211 20.8789C11.722 20.9799 11.8262 21.0765 11.9333 21.1687L7.94029 25.1618ZM18.9092 20.1901C18.0278 21.0715 16.856 21.5569 15.6096 21.5569C14.3631 21.5569 13.1913 21.0715 12.31 20.1901C11.4286 19.3087 10.9432 18.1369 10.9432 16.8905C10.9432 15.644 11.4286 14.4722 12.31 13.5908C13.1913 12.7094 14.3631 12.224 15.6096 12.2241C16.8561 12.2241 18.0279 12.7094 18.9093 13.5908C19.7906 14.4722 20.2761 15.6441 20.276 16.8905C20.276 18.1369 19.7906 19.3087 18.9092 20.1901Z" fill="#DDDCDC"/>
</g>
</g>
<defs>
<clipPath id="clip0_393_1169">
<rect width="60" height="37.5" rx="5" fill="white"/>
</clipPath>
<clipPath id="clip1_393_1169">
<rect width="15" height="15" fill="white" transform="translate(6.25 11.25)"/>
</clipPath>
</defs>
</svg>
