<svg width="60" height="38" viewBox="0 0 60 38" fill="none" xmlns="http://www.w3.org/2000/svg">
<g clip-path="url(#clip0_338_1132)">
<path d="M2.8125 31.875H42.1875C42.4361 31.875 42.6746 31.7762 42.8504 31.6004C43.0262 31.4246 43.125 31.1861 43.125 30.9375C43.125 30.6889 43.0262 30.4504 42.8504 30.2746C42.6746 30.0988 42.4361 30 42.1875 30H2.8125C2.56386 30 2.3254 29.9012 2.14959 29.7254C1.97377 29.5496 1.875 29.3111 1.875 29.0625V8.4375C1.875 8.18886 1.97377 7.9504 2.14959 7.77459C2.3254 7.59877 2.56386 7.5 2.8125 7.5H42.1875C42.4361 7.5 42.6746 7.40123 42.8504 7.22541C43.0262 7.0496 43.125 6.81114 43.125 6.5625C43.125 6.31386 43.0262 6.0754 42.8504 5.89959C42.6746 5.72377 42.4361 5.625 42.1875 5.625H2.8125C2.06658 5.625 1.35121 5.92132 0.823762 6.44876C0.296316 6.97621 0 7.69158 0 8.4375L0 29.0625C0 29.8084 0.296316 30.5238 0.823762 31.0512C1.35121 31.5787 2.06658 31.875 2.8125 31.875Z" fill="#DDDCDC"/>
<path d="M57.1875 5.625H49.6875C49.4389 5.625 49.2004 5.72377 49.0246 5.89959C48.8488 6.0754 48.75 6.31386 48.75 6.5625C48.75 6.81114 48.8488 7.0496 49.0246 7.22541C49.2004 7.40123 49.4389 7.5 49.6875 7.5H57.1875C57.4361 7.5 57.6746 7.59877 57.8504 7.77459C58.0262 7.9504 58.125 8.18886 58.125 8.4375V29.0625C58.125 29.3111 58.0262 29.5496 57.8504 29.7254C57.6746 29.9012 57.4361 30 57.1875 30H49.6875C49.4389 30 49.2004 30.0988 49.0246 30.2746C48.8488 30.4504 48.75 30.6889 48.75 30.9375C48.75 31.1861 48.8488 31.4246 49.0246 31.6004C49.2004 31.7762 49.4389 31.875 49.6875 31.875H57.1875C57.9334 31.875 58.6488 31.5787 59.1762 31.0512C59.7037 30.5238 60 29.8084 60 29.0625V8.4375C60 7.69158 59.7037 6.97621 59.1762 6.44876C58.6488 5.92132 57.9334 5.625 57.1875 5.625Z" fill="#DDDCDC"/>
<path d="M40.3125 1.875H45V35.625H40.3125C40.0639 35.625 39.8254 35.7238 39.6496 35.8996C39.4738 36.0754 39.375 36.3139 39.375 36.5625C39.375 36.8111 39.4738 37.0496 39.6496 37.2254C39.8254 37.4012 40.0639 37.5 40.3125 37.5H51.5625C51.8111 37.5 52.0496 37.4012 52.2254 37.2254C52.4012 37.0496 52.5 36.8111 52.5 36.5625C52.5 36.3139 52.4012 36.0754 52.2254 35.8996C52.0496 35.7238 51.8111 35.625 51.5625 35.625H46.875V1.875H51.5625C51.8111 1.875 52.0496 1.77623 52.2254 1.60041C52.4012 1.4246 52.5 1.18614 52.5 0.9375C52.5 0.68886 52.4012 0.450403 52.2254 0.274587C52.0496 0.0987721 51.8111 0 51.5625 0L40.3125 0C40.0639 0 39.8254 0.0987721 39.6496 0.274587C39.4738 0.450403 39.375 0.68886 39.375 0.9375C39.375 1.18614 39.4738 1.4246 39.6496 1.60041C39.8254 1.77623 40.0639 1.875 40.3125 1.875Z" fill="#DDDCDC"/>
<path d="M2.8125 31.875H42.1875C42.4361 31.875 42.6746 31.7762 42.8504 31.6004C43.0262 31.4246 43.125 31.1861 43.125 30.9375C43.125 30.6889 43.0262 30.4504 42.8504 30.2746C42.6746 30.0988 42.4361 30 42.1875 30H2.8125C2.56386 30 2.3254 29.9012 2.14959 29.7254C1.97377 29.5496 1.875 29.3111 1.875 29.0625V8.4375C1.875 8.18886 1.97377 7.9504 2.14959 7.77459C2.3254 7.59877 2.56386 7.5 2.8125 7.5H42.1875C42.4361 7.5 42.6746 7.40123 42.8504 7.22541C43.0262 7.0496 43.125 6.81114 43.125 6.5625C43.125 6.31386 43.0262 6.0754 42.8504 5.89959C42.6746 5.72377 42.4361 5.625 42.1875 5.625H2.8125C2.06658 5.625 1.35121 5.92132 0.823762 6.44876C0.296316 6.97621 0 7.69158 0 8.4375L0 29.0625C0 29.8084 0.296316 30.5238 0.823762 31.0512C1.35121 31.5787 2.06658 31.875 2.8125 31.875Z" fill="#DDDCDC"/>
<path d="M57.1875 5.625H49.6875C49.4389 5.625 49.2004 5.72377 49.0246 5.89959C48.8488 6.0754 48.75 6.31386 48.75 6.5625C48.75 6.81114 48.8488 7.0496 49.0246 7.22541C49.2004 7.40123 49.4389 7.5 49.6875 7.5H57.1875C57.4361 7.5 57.6746 7.59877 57.8504 7.77459C58.0262 7.9504 58.125 8.18886 58.125 8.4375V29.0625C58.125 29.3111 58.0262 29.5496 57.8504 29.7254C57.6746 29.9012 57.4361 30 57.1875 30H49.6875C49.4389 30 49.2004 30.0988 49.0246 30.2746C48.8488 30.4504 48.75 30.6889 48.75 30.9375C48.75 31.1861 48.8488 31.4246 49.0246 31.6004C49.2004 31.7762 49.4389 31.875 49.6875 31.875H57.1875C57.9334 31.875 58.6488 31.5787 59.1762 31.0512C59.7037 30.5238 60 29.8084 60 29.0625V8.4375C60 7.69158 59.7037 6.97621 59.1762 6.44876C58.6488 5.92132 57.9334 5.625 57.1875 5.625Z" fill="#DDDCDC"/>
<path d="M40.3125 1.875H45V35.625H40.3125C40.0639 35.625 39.8254 35.7238 39.6496 35.8996C39.4738 36.0754 39.375 36.3139 39.375 36.5625C39.375 36.8111 39.4738 37.0496 39.6496 37.2254C39.8254 37.4012 40.0639 37.5 40.3125 37.5H51.5625C51.8111 37.5 52.0496 37.4012 52.2254 37.2254C52.4012 37.0496 52.5 36.8111 52.5 36.5625C52.5 36.3139 52.4012 36.0754 52.2254 35.8996C52.0496 35.7238 51.8111 35.625 51.5625 35.625H46.875V1.875H51.5625C51.8111 1.875 52.0496 1.77623 52.2254 1.60041C52.4012 1.4246 52.5 1.18614 52.5 0.9375C52.5 0.68886 52.4012 0.450403 52.2254 0.274587C52.0496 0.0987721 51.8111 0 51.5625 0L40.3125 0C40.0639 0 39.8254 0.0987721 39.6496 0.274587C39.4738 0.450403 39.375 0.68886 39.375 0.9375C39.375 1.18614 39.4738 1.4246 39.6496 1.60041C39.8254 1.77623 40.0639 1.875 40.3125 1.875Z" fill="#DDDCDC"/>
<path d="M13.75 25H15.8654V24.2241C15.8654 24.117 15.7793 24.0302 15.673 24.0302H15.0961C14.7775 24.0302 14.5192 23.7696 14.5192 23.4483V15.1078C14.5192 15.0006 14.6053 14.9138 14.7115 14.9138H17.0192C17.7604 14.9138 18.0444 15.6838 18.1358 15.948C18.1625 16.0258 18.2353 16.0778 18.3169 16.0776H18.5577C18.6639 16.0776 18.75 15.9907 18.75 15.8836V13.944C18.75 13.8369 18.6639 13.75 18.5577 13.75H8.94232C8.83609 13.75 8.75 13.8368 8.75 13.944V15.8836C8.75 15.9907 8.83609 16.0776 8.94232 16.0776H9.18308C9.26471 16.0778 9.33747 16.0258 9.36425 15.948C9.45559 15.6839 9.73962 14.9138 10.4808 14.9138H12.7885C12.8947 14.9138 12.9808 15.0006 12.9808 15.1078V23.4483C12.9808 23.7697 12.7225 24.0302 12.4039 24.0302H11.8269C11.7207 24.0302 11.6346 24.117 11.6346 24.2242V25H13.75Z" fill="#DDDCDC"/>
</g>
<defs>
<clipPath id="clip0_338_1132">
<rect width="60" height="37.5" rx="5" fill="white"/>
</clipPath>
</defs>
</svg>
