<svg width="60" height="38" viewBox="0 0 60 38" fill="none" xmlns="http://www.w3.org/2000/svg">
<g clip-path="url(#clip0_382_1264)">
<path d="M2.8125 31.875H42.1875C42.4361 31.875 42.6746 31.7762 42.8504 31.6004C43.0262 31.4246 43.125 31.1861 43.125 30.9375C43.125 30.6889 43.0262 30.4504 42.8504 30.2746C42.6746 30.0988 42.4361 30 42.1875 30H2.8125C2.56386 30 2.3254 29.9012 2.14959 29.7254C1.97377 29.5496 1.875 29.3111 1.875 29.0625V8.4375C1.875 8.18886 1.97377 7.9504 2.14959 7.77459C2.3254 7.59877 2.56386 7.5 2.8125 7.5H42.1875C42.4361 7.5 42.6746 7.40123 42.8504 7.22541C43.0262 7.0496 43.125 6.81114 43.125 6.5625C43.125 6.31386 43.0262 6.0754 42.8504 5.89959C42.6746 5.72377 42.4361 5.625 42.1875 5.625H2.8125C2.06658 5.625 1.35121 5.92132 0.823762 6.44876C0.296316 6.97621 0 7.69158 0 8.4375L0 29.0625C0 29.8084 0.296316 30.5238 0.823762 31.0512C1.35121 31.5787 2.06658 31.875 2.8125 31.875Z" fill="#DDDCDC"/>
<path d="M57.1875 5.625H49.6875C49.4389 5.625 49.2004 5.72377 49.0246 5.89959C48.8488 6.0754 48.75 6.31386 48.75 6.5625C48.75 6.81114 48.8488 7.0496 49.0246 7.22541C49.2004 7.40123 49.4389 7.5 49.6875 7.5H57.1875C57.4361 7.5 57.6746 7.59877 57.8504 7.77459C58.0262 7.9504 58.125 8.18886 58.125 8.4375V29.0625C58.125 29.3111 58.0262 29.5496 57.8504 29.7254C57.6746 29.9012 57.4361 30 57.1875 30H49.6875C49.4389 30 49.2004 30.0988 49.0246 30.2746C48.8488 30.4504 48.75 30.6889 48.75 30.9375C48.75 31.1861 48.8488 31.4246 49.0246 31.6004C49.2004 31.7762 49.4389 31.875 49.6875 31.875H57.1875C57.9334 31.875 58.6488 31.5787 59.1762 31.0512C59.7037 30.5238 60 29.8084 60 29.0625V8.4375C60 7.69158 59.7037 6.97621 59.1762 6.44876C58.6488 5.92132 57.9334 5.625 57.1875 5.625Z" fill="#DDDCDC"/>
<path d="M40.3125 1.875H45V35.625H40.3125C40.0639 35.625 39.8254 35.7238 39.6496 35.8996C39.4738 36.0754 39.375 36.3139 39.375 36.5625C39.375 36.8111 39.4738 37.0496 39.6496 37.2254C39.8254 37.4012 40.0639 37.5 40.3125 37.5H51.5625C51.8111 37.5 52.0496 37.4012 52.2254 37.2254C52.4012 37.0496 52.5 36.8111 52.5 36.5625C52.5 36.3139 52.4012 36.0754 52.2254 35.8996C52.0496 35.7238 51.8111 35.625 51.5625 35.625H46.875V1.875H51.5625C51.8111 1.875 52.0496 1.77623 52.2254 1.60041C52.4012 1.4246 52.5 1.18614 52.5 0.9375C52.5 0.68886 52.4012 0.450403 52.2254 0.274587C52.0496 0.0987721 51.8111 0 51.5625 0L40.3125 0C40.0639 0 39.8254 0.0987721 39.6496 0.274587C39.4738 0.450403 39.375 0.68886 39.375 0.9375C39.375 1.18614 39.4738 1.4246 39.6496 1.60041C39.8254 1.77623 40.0639 1.875 40.3125 1.875Z" fill="#DDDCDC"/>
<path d="M2.8125 31.875H42.1875C42.4361 31.875 42.6746 31.7762 42.8504 31.6004C43.0262 31.4246 43.125 31.1861 43.125 30.9375C43.125 30.6889 43.0262 30.4504 42.8504 30.2746C42.6746 30.0988 42.4361 30 42.1875 30H2.8125C2.56386 30 2.3254 29.9012 2.14959 29.7254C1.97377 29.5496 1.875 29.3111 1.875 29.0625V8.4375C1.875 8.18886 1.97377 7.9504 2.14959 7.77459C2.3254 7.59877 2.56386 7.5 2.8125 7.5H42.1875C42.4361 7.5 42.6746 7.40123 42.8504 7.22541C43.0262 7.0496 43.125 6.81114 43.125 6.5625C43.125 6.31386 43.0262 6.0754 42.8504 5.89959C42.6746 5.72377 42.4361 5.625 42.1875 5.625H2.8125C2.06658 5.625 1.35121 5.92132 0.823762 6.44876C0.296316 6.97621 0 7.69158 0 8.4375L0 29.0625C0 29.8084 0.296316 30.5238 0.823762 31.0512C1.35121 31.5787 2.06658 31.875 2.8125 31.875Z" fill="#DDDCDC"/>
<path d="M57.1875 5.625H49.6875C49.4389 5.625 49.2004 5.72377 49.0246 5.89959C48.8488 6.0754 48.75 6.31386 48.75 6.5625C48.75 6.81114 48.8488 7.0496 49.0246 7.22541C49.2004 7.40123 49.4389 7.5 49.6875 7.5H57.1875C57.4361 7.5 57.6746 7.59877 57.8504 7.77459C58.0262 7.9504 58.125 8.18886 58.125 8.4375V29.0625C58.125 29.3111 58.0262 29.5496 57.8504 29.7254C57.6746 29.9012 57.4361 30 57.1875 30H49.6875C49.4389 30 49.2004 30.0988 49.0246 30.2746C48.8488 30.4504 48.75 30.6889 48.75 30.9375C48.75 31.1861 48.8488 31.4246 49.0246 31.6004C49.2004 31.7762 49.4389 31.875 49.6875 31.875H57.1875C57.9334 31.875 58.6488 31.5787 59.1762 31.0512C59.7037 30.5238 60 29.8084 60 29.0625V8.4375C60 7.69158 59.7037 6.97621 59.1762 6.44876C58.6488 5.92132 57.9334 5.625 57.1875 5.625Z" fill="#DDDCDC"/>
<path d="M40.3125 1.875H45V35.625H40.3125C40.0639 35.625 39.8254 35.7238 39.6496 35.8996C39.4738 36.0754 39.375 36.3139 39.375 36.5625C39.375 36.8111 39.4738 37.0496 39.6496 37.2254C39.8254 37.4012 40.0639 37.5 40.3125 37.5H51.5625C51.8111 37.5 52.0496 37.4012 52.2254 37.2254C52.4012 37.0496 52.5 36.8111 52.5 36.5625C52.5 36.3139 52.4012 36.0754 52.2254 35.8996C52.0496 35.7238 51.8111 35.625 51.5625 35.625H46.875V1.875H51.5625C51.8111 1.875 52.0496 1.77623 52.2254 1.60041C52.4012 1.4246 52.5 1.18614 52.5 0.9375C52.5 0.68886 52.4012 0.450403 52.2254 0.274587C52.0496 0.0987721 51.8111 0 51.5625 0L40.3125 0C40.0639 0 39.8254 0.0987721 39.6496 0.274587C39.4738 0.450403 39.375 0.68886 39.375 0.9375C39.375 1.18614 39.4738 1.4246 39.6496 1.60041C39.8254 1.77623 40.0639 1.875 40.3125 1.875Z" fill="#DDDCDC"/>
<g clip-path="url(#clip1_382_1264)">
<path d="M15.2485 12.2797L12.1997 15.3285C12.1938 15.3344 12.1901 15.3415 12.1843 15.3474C12.9354 15.238 13.707 15.313 14.4222 15.5919L16.4914 13.5227C17.177 12.8372 18.2919 12.8372 18.9774 13.5227C19.6629 14.2082 19.6629 15.3231 18.9774 16.0086C18.8605 16.1255 15.7523 19.2337 15.9286 19.0574C15.2376 19.7484 14.1041 19.7188 13.4426 19.0574C13.1001 18.7148 12.5423 18.7148 12.1997 19.0574L11.6661 19.591C11.8141 19.8425 11.9838 20.0845 12.1997 20.3004C13.5016 21.6023 15.7427 21.7063 17.1526 20.3158C17.1585 20.3099 17.1656 20.3063 17.1715 20.3004L20.2204 17.2516C21.5933 15.8786 21.5933 13.6527 20.2204 12.2797C18.8474 10.9068 16.6215 10.9068 15.2485 12.2797Z" fill="#DDDCDC"/>
<path d="M13.0846 21.9014L11.0086 23.9774C10.3232 24.6629 9.20823 24.6629 8.52277 23.9774C7.83726 23.2918 7.83726 22.177 8.52277 21.4914C8.63967 21.3745 11.7545 18.2597 11.5782 18.436C12.2692 17.745 13.4027 17.7745 14.0642 18.436C14.4067 18.7786 14.9645 18.7786 15.3071 18.436L15.8407 17.9024C15.6927 17.6509 15.523 17.4089 15.3071 17.193C14.0076 15.8935 11.7683 15.7829 10.3542 17.1776C10.3483 17.1834 10.3412 17.1871 10.3353 17.193L7.27977 20.2485C5.90686 21.6214 5.9068 23.8474 7.27977 25.2204C8.65273 26.5933 10.8787 26.5933 12.2516 25.2204L15.3071 22.1649C15.313 22.159 15.3166 22.1519 15.3225 22.146C14.5714 22.2553 13.7998 22.1803 13.0846 21.9014Z" fill="#DDDCDC"/>
</g>
</g>
<defs>
<clipPath id="clip0_382_1264">
<rect width="60" height="37.5" rx="5" fill="white"/>
</clipPath>
<clipPath id="clip1_382_1264">
<rect width="15" height="15" fill="white" transform="translate(6.25 11.25)"/>
</clipPath>
</defs>
</svg>
